<svg width="2000" height="1400" xmlns="http://www.w3.org/2000/svg"><path fill="none" d="M0 0h2000v1400H0z"/><path d="M0 155h0c30.567-.373 61.134-.746 88-2s50.032-3.39 77-7c26.968-3.61 57.737-8.694 86-1 28.263 7.694 54.02 28.164 80 26 25.98-2.164 52.18-26.964 80-32 27.82-5.036 57.26 9.692 85 18 27.74 8.308 53.778 10.195 82 13 28.222 2.805 58.629 6.527 89 8 30.371 1.473 60.707.697 87-6s48.545-19.314 76-19c27.455.314 60.115 13.559 90 19 29.885 5.441 56.996 3.079 84-5 27.004-8.079 53.9-21.875 81-22s54.403 13.42 81 19 52.487 3.197 80 1c27.513-2.197 56.65-4.206 85-5 28.35-.794 55.916-.374 82-6 26.084-5.626 50.689-17.298 80-11 29.311 6.298 63.33 30.567 93 33s54.99-16.968 82-20c27.01-3.032 55.707 10.306 83 15 27.293 4.694 53.182.743 79-7 25.818-7.743 51.566-19.277 83-20 31.434-.723 68.552 9.365 84 13 15.448 3.635 9.224.818 43-2" fill="none" stroke="#40b64b" stroke-width="20" stroke-linecap="round"/></svg>